<?xml version="1.0" encoding="utf-8"?>
<!-- Generator: Adobe Illustrator 25.2.0, SVG Export Plug-In . SVG Version: 6.00 Build 0)  -->
<svg version="1.1" xmlns="http://www.w3.org/2000/svg" xmlns:xlink="http://www.w3.org/1999/xlink" x="0px" y="0px"
	 viewBox="0 0 1041.7 660.8" style="enable-background:new 0 0 1041.7 660.8;" xml:space="preserve">
<style type="text/css">
	.st0{fill:#FFFFFF;}
	.st1{fill:none;stroke:#000000;stroke-width:1.3547;stroke-linecap:round;stroke-linejoin:round;stroke-miterlimit:10;}
	.st2{fill:#1F1F1F;}
	.st3{fill:#F36630;}
	
		.st4{fill:none;stroke:#000000;stroke-width:1.6934;stroke-linecap:round;stroke-linejoin:round;stroke-miterlimit:10;stroke-dasharray:13.5474;}
	.st5{fill:none;stroke:#000000;stroke-width:1.0161;stroke-linecap:round;stroke-linejoin:round;stroke-miterlimit:10;}
	.st6{fill:none;stroke:#000000;stroke-width:0.4255;stroke-miterlimit:10;}
	.st7{fill:none;stroke:#FFFFFF;stroke-width:1.3547;stroke-linecap:round;stroke-linejoin:round;stroke-miterlimit:10;}
</style>
<g id="BACKGROUND">
</g>
<g id="OBJECTS">
	<path class="st0" d="M340.6,239.3v244.4c0,6-5,10.8-11.2,10.8H84.8c-6.2,0-11.2-4.8-11.2-10.8V239.3c0-6,5-10.8,11.2-10.8h244.6
		C335.5,228.5,340.6,233.3,340.6,239.3z"/>
	<g>
		<g>
			<rect x="211.3" y="551.7" class="st1" width="70.2" height="27.1"/>
			<g>
				<g>
					<path class="st2" d="M278.5,582.5H209c-1.8,0-3.2-1.4-3.2-3.2c0-1.8,1.4-3.2,3.2-3.2h69.5c1.1,0,2-0.9,2-2v-18.1
						c0-1.1-0.9-2-2-2H209c-1.8,0-3.2-1.4-3.2-3.2c0-1.8,1.4-3.2,3.2-3.2h69.5c4.6,0,8.4,3.8,8.4,8.4v18.1
						C286.9,578.8,283.1,582.5,278.5,582.5z"/>
				</g>
			</g>
			<g>
				<path class="st1" d="M278.5,582.5H209c-1.8,0-3.2-1.4-3.2-3.2c0-1.8,1.4-3.2,3.2-3.2h69.5c1.1,0,2-0.9,2-2v-18.1
					c0-1.1-0.9-2-2-2H209c-1.8,0-3.2-1.4-3.2-3.2c0-1.8,1.4-3.2,3.2-3.2h69.5c4.6,0,8.4,3.8,8.4,8.4v18.1
					C286.9,578.8,283.1,582.5,278.5,582.5z"/>
			</g>
			<line class="st1" x1="283" y1="560" x2="243.6" y2="560"/>
			<line class="st1" x1="283" y1="568.2" x2="238.6" y2="568.2"/>
		</g>
		<g>
			<rect x="134.9" y="589.4" class="st0" width="148" height="48.7"/>
			<rect x="134.9" y="589.4" class="st1" width="148" height="48.7"/>
			<line class="st1" x1="134.9" y1="606.1" x2="199.2" y2="606.1"/>
			<line class="st1" x1="134.9" y1="621.5" x2="217.1" y2="621.5"/>
			<g>
				<g>
					<path class="st3" d="M287.6,643H141.1c-6.1,0-11-4.9-11-11v-37.5c0-6.1,4.9-11,11-11h146.5c2.7,0,4.8,2.2,4.8,4.8
						c0,2.7-2.2,4.8-4.8,4.8H141.1c-0.7,0-1.3,0.6-1.3,1.3V632c0,0.7,0.6,1.3,1.3,1.3h146.5c2.7,0,4.8,2.2,4.8,4.8
						C292.4,640.8,290.3,643,287.6,643z"/>
				</g>
			</g>
			<g>
				<path class="st1" d="M287.6,643H141.1c-6.1,0-11-4.9-11-11v-37.5c0-6.1,4.9-11,11-11h146.5c2.7,0,4.8,2.2,4.8,4.8
					c0,2.7-2.2,4.8-4.8,4.8H141.1c-0.7,0-1.3,0.6-1.3,1.3V632c0,0.7,0.6,1.3,1.3,1.3h146.5c2.7,0,4.8,2.2,4.8,4.8
					C292.4,640.8,290.3,643,287.6,643z"/>
			</g>
		</g>
		<polyline class="st1" points="885.7,643.9 660.6,643.9 626,643.9 597.3,643.9 591.7,643.9 104.6,643.9 		"/>
		<path class="st0" d="M340.1,478.3v5.4c0,2.7-1,5.3-2.6,7.2h-58.5v-12.6H340.1z"/>
		<path class="st1" d="M340.1,478.3v5.4c0,2.7-1,5.3-2.6,7.2h-58.5v-12.6H340.1z"/>
		<g>
			<path class="st3" d="M654.7,643.9l-155.3-4.1l-155.3,4.1c-24.7-42-3.8-100.9,43-148.7c23.7-24.2,53.4-34.4,76.8-38.5
				c16-2.8,29.1-2.8,35.5-2.6c5.9-0.2,17.5-0.2,31.8,1.9c24,3.7,55.5,13.6,80.5,39.1C658.5,543,679.4,602,654.7,643.9z"/>
			<path class="st1" d="M654.7,643.9l-155.3-4.1l-155.3,4.1c-24.7-42-3.8-100.9,43-148.7c23.7-24.2,53.4-34.4,76.8-38.5
				c16-2.8,29.1-2.8,35.5-2.6c5.9-0.2,17.5-0.2,31.8,1.9c24,3.7,55.5,13.6,80.5,39.1C658.5,543,679.4,602,654.7,643.9z"/>
			<path class="st2" d="M339.5,569.3c0,0,15.4-15.9,34.9-10c18.9,5.7,31.4,29.6,29.5,42.9c-1,6.9-11.1,10.7-21.9,2.4
				C371.2,596.4,339.5,569.3,339.5,569.3z"/>
			<path class="st1" d="M339.5,569.3c0,0,15.4-15.9,34.9-10c18.9,5.7,31.4,29.6,29.5,42.9c-1,6.9-11.1,10.7-21.9,2.4
				C371.2,596.4,339.5,569.3,339.5,569.3z"/>
			<path class="st2" d="M659.2,569.3c0,0-15.4-15.9-34.9-10c-18.9,5.7-31.4,29.6-29.5,42.9c1,6.9,11.1,10.7,21.9,2.4
				C627.5,596.4,659.2,569.3,659.2,569.3z"/>
			<path class="st1" d="M659.2,569.3c0,0-15.4-15.9-34.9-10c-18.9,5.7-31.4,29.6-29.5,42.9c1,6.9,11.1,10.7,21.9,2.4
				C627.5,596.4,659.2,569.3,659.2,569.3z"/>
			<path class="st2" d="M503.6,481.4c-1.5,0.1-3,0.2-4.7,0.2c-1.3,0-2.6,0-3.8-0.1c-32.8-1.6-31.3-24.8-31.3-24.8v0
				c16-2.8,29.1-2.8,35.5-2.6c5.9-0.2,17.5-0.2,31.8,1.9C531.2,456.1,535.2,479.3,503.6,481.4z"/>
			<path class="st0" d="M517.9,439.8v24.4c0,0-5.7,7.9-20.3,7.9c-14.6,0-20.3-7.9-20.3-7.9v-24.4H517.9z"/>
			<path class="st1" d="M517.9,439.8v24.4c0,0-5.7,7.9-20.3,7.9c-14.6,0-20.3-7.9-20.3-7.9v-24.4H517.9z"/>
			<path class="st0" d="M537.5,401.7c0,28.9-18.3,50.8-40.8,50.8c-22.5,0-40.8-21.9-40.8-50.8s18.3-56.8,40.8-56.8
				C519.2,345,537.5,372.9,537.5,401.7z"/>
			<path class="st1" d="M537.5,401.7c0,28.9-18.3,50.8-40.8,50.8c-22.5,0-40.8-21.9-40.8-50.8s18.3-56.8,40.8-56.8
				C519.2,345,537.5,372.9,537.5,401.7z"/>
			<path class="st3" d="M545.5,390.6c-0.3,0.7-0.5,1.4-0.8,2.1c-0.8,2-1.6,3.4-2.3,4.4c-0.8,1.2-1.3,1.8-1.3,1.8
				c-0.3,0.2-0.6,0.3-1,0.5c-0.5,0.2-1,0.5-1.5,0.7c-0.4,0.2-0.7,0.3-1.1,0.4c-0.3,0.1-0.7,0.3-1,0.4
				c-38.2,14.2-65.4-31.6-65.4-31.6c-0.2,20.7-10.1,32.8-13.9,36.6c-0.6,0.6-1,1-1.2,1.2c-0.1,0.1-0.2,0.2-0.2,0.2
				c-0.7-0.9-1.4-1.7-2.1-2.6c-0.1-0.2-0.3-0.4-0.4-0.6c-0.8-1.1-1.6-2.2-2.3-3.2c-1.2-1.8-2.2-3.5-3.1-5.2
				c-0.8-1.6-1.5-3.1-2.2-4.7c-2-4.9-3.1-9.8-3.4-14.6c-2-28.2,23.2-51.8,46.7-54.1c31.8-3.1,38,12.9,38,12.9s0,0,0.1,0
				c4.2-1.1,21.4,3.3,21.9,29.4C549.2,376.8,547.4,385.2,545.5,390.6z"/>
			<g>
				<g>
					<path class="st0" d="M452.2,410.6l-5.3-1.3l1.6-6.7c-0.6-4.6-4-35.3,12.2-54.1c8.2-9.5,19.9-14.3,34.9-14.3
						c16.9,0,29.7,5.3,38.1,15.8c16.6,20.7,9.9,54,9,57.7l-5.3-1.2c0.8-3.5,7.1-34.3-8-53.1c-7.3-9.1-18.7-13.8-33.9-13.8
						c-13.3,0-23.7,4.2-30.7,12.4c-15.5,18.1-10.9,50-10.8,50.3l0.1,0.5L452.2,410.6z"/>
				</g>
			</g>
			<g>
				<path class="st1" d="M452.2,410.6l-5.3-1.3l1.6-6.7c-0.6-4.6-4-35.3,12.2-54.1c8.2-9.5,19.9-14.3,34.9-14.3
					c16.9,0,29.7,5.3,38.1,15.8c16.6,20.7,9.9,54,9,57.7l-5.3-1.2c0.8-3.5,7.1-34.3-8-53.1c-7.3-9.1-18.7-13.8-33.9-13.8
					c-13.3,0-23.7,4.2-30.7,12.4c-15.5,18.1-10.9,50-10.8,50.3l0.1,0.5L452.2,410.6z"/>
			</g>
			<path d="M507.6,394.4c-0.7,1.2,8.1,4.8,9.3,3.6C518.1,396.8,508.5,392.7,507.6,394.4z"/>
			<path d="M510,411.4L510,411.4c-0.9,0-1.6-0.7-1.6-1.6v-3.9c0-0.9,0.7-1.6,1.6-1.6l0,0c0.9,0,1.6,0.7,1.6,1.6v3.9
				C511.6,410.7,510.9,411.4,510,411.4z"/>
			<path d="M485.4,411.4L485.4,411.4c-0.9,0-1.6-0.7-1.6-1.6v-3.9c0-0.9,0.7-1.6,1.6-1.6l0,0c0.9,0,1.6,0.7,1.6,1.6v3.9
				C487,410.7,486.3,411.4,485.4,411.4z"/>
			<path class="st1" d="M507.8,411.4c0,0,1.9-1.5,4.4,0"/>
			<path class="st1" d="M493.4,433.8c0,0,12.1-1.1,18.3-10"/>
			<path d="M487.8,394.4c0.7,1.2-8.1,4.8-9.3,3.6C477.3,396.8,486.8,392.7,487.8,394.4z"/>
			<path class="st1" d="M487.6,411.4c0,0-1.9-1.5-4.4,0"/>
			<path class="st1" d="M493.9,413.3c0,0-0.9,4.8,3.7,4.3c4.6-0.5,4.8-5.5,1.4-5.6"/>
			<path class="st0" d="M371,559.4c28.7,9.2,25.5,71.5,8.8,84.6h-61.6c0,0-2.7-36.6,8.3-57.6C337.6,565.3,356.9,554.9,371,559.4z"/>
			<path class="st1" d="M371,559.4c28.7,9.2,25.5,71.5,8.8,84.6h-61.6c0,0-2.7-36.6,8.3-57.6C337.6,565.3,356.9,554.9,371,559.4z"/>
			<path class="st0" d="M338.2,643.9h34.6c2.7,6.8,15.7,7.3,28.6,0c0.1,0,0.1-0.1,0.2-0.1c3.9-2.2,6.4-6.5,6.4-11v-1.4
				c0-4.5-2.4-8.8-6.4-11c0,0-0.1,0-0.1,0c-2.9-1.6-11.8,0.5-16.7-0.7c-4.8-1.2-12.7-6.9-15.1-9.4c0,0-0.1-0.1-0.1-0.1
				c-2.3-2.4-9.8-9.1-20.6-3.2C342,610.9,339.2,630.8,338.2,643.9z"/>
			<path class="st1" d="M338.2,643.9h34.6c2.7,6.8,15.7,7.3,28.6,0c0.1,0,0.1-0.1,0.2-0.1c3.9-2.2,6.4-6.5,6.4-11v-1.4
				c0-4.5-2.4-8.8-6.4-11c0,0-0.1,0-0.1,0c-2.9-1.6-11.8,0.5-16.7-0.7c-4.8-1.2-12.7-6.9-15.1-9.4c0,0-0.1-0.1-0.1-0.1
				c-2.3-2.4-9.8-9.1-20.6-3.2C342,610.9,339.2,630.8,338.2,643.9z"/>
			<path class="st1" d="M402,643.6c-0.2,0.1-0.4,0.2-0.6,0.3c-12.9,7.3-26,6.8-28.6,0c-0.6-1.6-0.7-3.6,0-6
				c4.2-14.1,18.7-13.4,18.7-13.4"/>
			<path class="st0" d="M627.7,559.4c-28.7,9.2-25.5,71.5-8.8,84.6h61.6c0,0,2.7-36.6-8.3-57.6C661.2,565.3,641.8,554.9,627.7,559.4
				z"/>
			<path class="st1" d="M627.7,559.4c-28.7,9.2-25.5,71.5-8.8,84.6h61.6c0,0,2.7-36.6-8.3-57.6C661.2,565.3,641.8,554.9,627.7,559.4
				z"/>
			<path class="st0" d="M660.6,643.9H626c-2.7,6.8-15.7,7.3-28.6,0c-0.1,0-0.1-0.1-0.2-0.1c-3.9-2.2-6.4-6.5-6.4-11v-1.4
				c0-4.5,2.4-8.8,6.4-11c0,0,0.1,0,0.1,0c2.9-1.6,11.8,0.5,16.7-0.7c4.8-1.2,12.7-6.9,15.1-9.4c0,0,0.1-0.1,0.1-0.1
				c2.3-2.4,9.8-9.1,20.6-3.2C656.8,610.9,659.5,630.8,660.6,643.9z"/>
			<path class="st1" d="M660.6,643.9H626c-2.7,6.8-15.7,7.3-28.6,0c-0.1,0-0.1-0.1-0.2-0.1c-3.9-2.2-6.4-6.5-6.4-11v-1.4
				c0-4.5,2.4-8.8,6.4-11c0,0,0.1,0,0.1,0c2.9-1.6,11.8,0.5,16.7-0.7c4.8-1.2,12.7-6.9,15.1-9.4c0,0,0.1-0.1,0.1-0.1
				c2.3-2.4,9.8-9.1,20.6-3.2C656.8,610.9,659.5,630.8,660.6,643.9z"/>
			<path class="st1" d="M607.2,624.5c0,0,14.5-0.7,18.7,13.4c0.7,2.4,0.7,4.4,0,6c-2.7,6.8-15.7,7.3-28.6,0
				c-0.2-0.1-0.4-0.2-0.6-0.3"/>
			<path class="st0" d="M673.5,645.3c0,0,7.3,4.1,10.2-5.6c3.4-11.1-2.2-33.1-8.2-34.3c-6-1.2-9.3,7.4-9.3,7.4L673.5,645.3z"/>
			<path class="st1" d="M673.5,645.3c0,0,7.3,4.1,10.2-5.6c3.4-11.1-2.2-33.1-8.2-34.3c-6-1.2-9.3,7.4-9.3,7.4L673.5,645.3z"/>
			<path class="st0" d="M647.2,611.1c0,0,3.9-8.1,14.5-7.3c10.6,0.7,14.6,38.2,13.2,42.8c-1.4,4.7-16.1,7.7-18.1-1.1
				C654.9,636.7,647.2,611.1,647.2,611.1z"/>
			<path class="st1" d="M647.2,611.1c0,0,3.9-8.1,14.5-7.3c10.6,0.7,14.6,38.2,13.2,42.8c-1.4,4.7-16.1,7.7-18.1-1.1
				C654.9,636.7,647.2,611.1,647.2,611.1z"/>
			<path class="st0" d="M658.6,643.9c-0.1,1.5-0.4,2.7-0.9,3.6c-3.8,7.1-19.3,6.9-22.8-3.6c-0.1-0.2-0.1-0.4-0.2-0.5
				c-2.2-7.7-4.5-24-5.6-33.1c0,0,0.1-0.1,0.1-0.1c2.3-2.4,9.8-9.1,20.6-3.2C653.2,611.2,659.6,633.6,658.6,643.9z"/>
			<path class="st1" d="M629,610.3c0,0,0.1-0.1,0.1-0.1c2.3-2.4,9.8-9.1,20.6-3.2c3.6,4.2,10,26.6,8.9,37c-0.1,1.5-0.4,2.7-0.9,3.6
				c-3.8,7.1-19.3,6.9-22.8-3.6c-0.1-0.2-0.1-0.4-0.2-0.5c-1.5-5.1-3-13.9-4.1-22"/>
			<path class="st0" d="M325.3,645.3c0,0-7.3,4.1-10.2-5.6c-3.4-11.1,2.2-33.1,8.2-34.3c6-1.2,9.3,7.4,9.3,7.4L325.3,645.3z"/>
			<path class="st1" d="M325.3,645.3c0,0-7.3,4.1-10.2-5.6c-3.4-11.1,2.2-33.1,8.2-34.3c6-1.2,9.3,7.4,9.3,7.4L325.3,645.3z"/>
			<path class="st0" d="M351.6,611.1c0,0-3.9-8.1-14.5-7.3c-10.6,0.7-14.6,38.2-13.2,42.8c1.4,4.7,16.1,7.7,18.1-1.1
				C343.9,636.7,351.6,611.1,351.6,611.1z"/>
			<path class="st1" d="M351.6,611.1c0,0-3.9-8.1-14.5-7.3c-10.6,0.7-14.6,38.2-13.2,42.8c1.4,4.7,16.1,7.7,18.1-1.1
				C343.9,636.7,351.6,611.1,351.6,611.1z"/>
			<path class="st0" d="M340.2,643.9c0.1,1.5,0.4,2.7,0.9,3.6c3.8,7.1,19.3,6.9,22.8-3.6c0.1-0.2,0.1-0.4,0.2-0.5
				c2.2-7.7,4.5-24,5.6-33.1c0,0-0.1-0.1-0.1-0.1c-2.3-2.4-9.8-9.1-20.6-3.2C345.5,611.2,339.1,633.6,340.2,643.9z"/>
			<path class="st1" d="M369.8,610.3c0,0-0.1-0.1-0.1-0.1c-2.3-2.4-9.8-9.1-20.6-3.2c-3.6,4.2-10,26.6-8.9,37
				c0.1,1.5,0.4,2.7,0.9,3.6c3.8,7.1,19.3,6.9,22.8-3.6c0.1-0.2,0.1-0.4,0.2-0.5c1.4-4.7,2.8-12.7,3.9-20.3"/>
			<path class="st0" d="M527,335c-21.5-16.7-73.6-16.5-84.6,41.2c-2-28.2,23.2-51.8,46.7-54.1C520.8,319,527,335,527,335z"/>
			<path class="st1" d="M545.5,390.6c-0.3,0.7-0.5,1.4-0.8,2.1c-0.8,2-1.6,3.4-2.3,4.4c-0.8,1.2-1.3,1.8-1.3,1.8
				c-0.3,0.2-0.6,0.3-1,0.5c-0.5,0.2-1,0.5-1.5,0.7c-0.4,0.2-0.7,0.3-1.1,0.4c-0.3,0.1-0.7,0.3-1,0.4
				c-38.2,14.2-65.4-31.6-65.4-31.6c-0.2,20.7-10.1,32.8-13.9,36.6c-0.6,0.6-1,1-1.2,1.2c-0.1,0.1-0.2,0.2-0.2,0.2
				c-0.7-0.9-1.4-1.7-2.1-2.6c-0.1-0.2-0.3-0.4-0.4-0.6c-0.8-1.1-1.6-2.2-2.3-3.2c-1.2-1.8-2.2-3.5-3.1-5.2
				c-0.8-1.6-1.5-3.1-2.2-4.7c-2-4.9-3.1-9.8-3.4-14.6c-2-28.2,23.2-51.8,46.7-54.1c31.8-3.1,38,12.9,38,12.9s0,0,0.1,0
				c4.2-1.1,21.4,3.3,21.9,29.4C549.2,376.8,547.4,385.2,545.5,390.6z"/>
			<path class="st0" d="M544.6,422.6l-6.5-0.6l2.8-31.9l10.3,0.9c2.5,0.2,4.3,2.4,4.1,4.8l-1.7,19.2
				C553.1,419.6,549.1,423,544.6,422.6z"/>
			<path d="M540.7,422.3l-2.1-0.2c-1.7-0.1-3-1.6-3-3.3l0.1-11.1c0-6.2,1.8-12.3,5.2-17.5l2.6,0.2
				C543.5,390.4,540.6,404,540.7,422.3z"/>
			<path class="st0" d="M448.4,422.6l6.5-0.6l-2.9-31.9l-10.3,0.9c-2.5,0.2-4.3,2.4-4,4.9l1.7,19.2
				C439.9,419.7,443.9,423,448.4,422.6z"/>
			<path class="st1" d="M544.6,422.6l-6.5-0.6l2.8-31.9l10.3,0.9c2.5,0.2,4.3,2.4,4.1,4.8l-1.7,19.2
				C553.1,419.6,549.1,423,544.6,422.6z"/>
			<path class="st1" d="M448.4,422.6l6.5-0.6l-2.9-31.9l-10.3,0.9c-2.5,0.2-4.3,2.4-4,4.9l1.7,19.2
				C439.9,419.7,443.9,423,448.4,422.6z"/>
			<path d="M452.3,422.3l2.1-0.2c1.7-0.2,3-1.6,3-3.3l-0.1-11.1c-0.1-6.2-1.9-12.3-5.3-17.5l-2.6,0.2
				C449.4,390.4,452.3,404,452.3,422.3z"/>
			<path class="st1" d="M540.7,422.3l-2.1-0.2c-1.7-0.1-3-1.6-3-3.3l0.1-11.1c0-6.2,1.8-12.3,5.2-17.5l2.6,0.2
				C543.5,390.4,540.6,404,540.7,422.3z"/>
			<path class="st1" d="M452.3,422.3l2.1-0.2c1.7-0.2,3-1.6,3-3.3l-0.1-11.1c-0.1-6.2-1.9-12.3-5.3-17.5l-2.6,0.2
				C449.4,390.4,452.3,404,452.3,422.3z"/>
		</g>
		<g>
			<path class="st0" d="M995.2,145.6v341.7c0,8.4-6.8,15.1-15.1,15.1H650.5c-8.4,0-15.1-6.8-15.1-15.1V145.6
				c0-8.4,6.8-15.1,15.1-15.1h329.6C988.4,130.5,995.2,137.2,995.2,145.6z"/>
			<path class="st1" d="M758.6,502.4H650.5c-8.4,0-15.1-6.8-15.1-15.1v-205"/>
			<path class="st1" d="M635.4,175.9v-4.5v-25.8c0-8.4,6.8-15.1,15.1-15.1h329.6c8.4,0,15.1,6.8,15.1,15.1v313.6"/>
			<path class="st3" d="M995.2,145.6v15H635.4v-15c0-8.4,6.8-15.1,15.1-15.1h329.6C988.4,130.5,995.2,137.2,995.2,145.6z"/>
			<path class="st1" d="M995.2,145.6v15H635.4v-15c0-8.4,6.8-15.1,15.1-15.1h329.6C988.4,130.5,995.2,137.2,995.2,145.6z"/>
			<circle class="st0" cx="944.8" cy="145.3" r="5.2"/>
			<path d="M982.8,145.3c0,2.9-2.3,5.2-5.2,5.2c-2.9,0-5.2-2.3-5.2-5.2c0-2.9,2.3-5.2,5.2-5.2C980.4,140,982.8,142.4,982.8,145.3z"
				/>
			<path class="st0" d="M917.3,145.3c0,2.9-2.3,5.2-5.2,5.2c-2.9,0-5.2-2.3-5.2-5.2c0-2.9,2.3-5.2,5.2-5.2
				C914.9,140,917.3,142.4,917.3,145.3z"/>
		</g>
		<g>
			<path class="st2" d="M586.7,636.1H411.2l-14.2-106.9c-0.4-2.8,1.8-5.2,4.6-5.2h194.8c2.8,0,4.9,2.5,4.6,5.2L586.7,636.1z"/>
			<path class="st1" d="M586.7,636.1H411.2l-14.2-106.9c-0.4-2.8,1.8-5.2,4.6-5.2h194.8c2.8,0,4.9,2.5,4.6,5.2L586.7,636.1z"/>
			<rect x="411.2" y="632.6" class="st0" width="175.5" height="11.4"/>
			<rect x="411.2" y="632.6" class="st1" width="175.5" height="11.4"/>
			<circle class="st0" cx="495.1" cy="581.4" r="19"/>
		</g>
		<g>
			<path class="st3" d="M722,186.9H573.2c-6.6,0-12,5.4-12,12v68.9c0,6.6,5.4,12,12,12h133.3l17.8,24.9c2.2,3.1,5.8,5,9.7,5V198.9
				C734.1,192.2,728.7,186.9,722,186.9z M606.1,237.8c-2.9,0-5.2-2.3-5.2-5.2c0-2.9,2.3-5.2,5.2-5.2c2.9,0,5.2,2.3,5.2,5.2
				C611.3,235.4,609,237.8,606.1,237.8z M644.9,237.8c-2.9,0-5.2-2.3-5.2-5.2c0-2.9,2.3-5.2,5.2-5.2c2.9,0,5.2,2.3,5.2,5.2
				C650.1,235.4,647.8,237.8,644.9,237.8z M683.7,237.8c-2.9,0-5.2-2.3-5.2-5.2c0-2.9,2.3-5.2,5.2-5.2c2.9,0,5.2,2.3,5.2,5.2
				C688.9,235.4,686.6,237.8,683.7,237.8z"/>
			<path class="st1" d="M712.1,175.9H563.3c-6.6,0-12,5.4-12,12v68.9c0,6.6,5.4,12,12,12h133.3l17.8,24.9c2.2,3.1,5.8,5,9.7,5V187.9
				C724.1,181.3,718.7,175.9,712.1,175.9z M596.1,226.8c-2.9,0-5.2-2.3-5.2-5.2c0-2.9,2.3-5.2,5.2-5.2c2.9,0,5.2,2.3,5.2,5.2
				C601.4,224.5,599,226.8,596.1,226.8z M634.9,226.8c-2.9,0-5.2-2.3-5.2-5.2c0-2.9,2.3-5.2,5.2-5.2c2.9,0,5.2,2.3,5.2,5.2
				C640.2,224.5,637.8,226.8,634.9,226.8z M673.7,226.8c-2.9,0-5.2-2.3-5.2-5.2c0-2.9,2.3-5.2,5.2-5.2c2.9,0,5.2,2.3,5.2,5.2
				C679,224.5,676.6,226.8,673.7,226.8z"/>
		</g>
		<g>
			<path class="st3" d="M944.5,208.2c0,2.9-2.3,5.2-5.2,5.2c-2.9,0-5.2-2.3-5.2-5.2c0-2.9,2.3-5.2,5.2-5.2
				C942.2,203,944.5,205.3,944.5,208.2z"/>
			<path class="st3" d="M983.3,208.2c0,2.9-2.3,5.2-5.2,5.2c-2.9,0-5.2-2.3-5.2-5.2c0-2.9,2.3-5.2,5.2-5.2
				C981,203,983.3,205.3,983.3,208.2z"/>
			<path class="st3" d="M1022.1,208.2c0,2.9-2.3,5.2-5.2,5.2c-2.9,0-5.2-2.3-5.2-5.2c0-2.9,2.3-5.2,5.2-5.2
				C1019.8,203,1022.1,205.3,1022.1,208.2z"/>
			<path class="st3" d="M944.5,243c0,2.9-2.3,5.2-5.2,5.2c-2.9,0-5.2-2.3-5.2-5.2s2.3-5.2,5.2-5.2
				C942.2,237.8,944.5,240.1,944.5,243z"/>
			<path class="st3" d="M983.3,243c0,2.9-2.3,5.2-5.2,5.2c-2.9,0-5.2-2.3-5.2-5.2s2.3-5.2,5.2-5.2C981,237.8,983.3,240.1,983.3,243z
				"/>
			<circle class="st3" cx="1016.9" cy="243" r="5.2"/>
			<path class="st3" d="M944.5,277.8c0,2.9-2.3,5.2-5.2,5.2c-2.9,0-5.2-2.3-5.2-5.2c0-2.9,2.3-5.2,5.2-5.2
				C942.2,272.6,944.5,274.9,944.5,277.8z"/>
			<path class="st3" d="M983.3,277.8c0,2.9-2.3,5.2-5.2,5.2c-2.9,0-5.2-2.3-5.2-5.2c0-2.9,2.3-5.2,5.2-5.2
				C981,272.6,983.3,274.9,983.3,277.8z"/>
			<circle class="st3" cx="1016.9" cy="277.8" r="5.2"/>
		</g>
		<path class="st4" d="M762.8,111.1c0,0-53.8-70.9-217.9-63.4C380.7,55.3,325.3,135.4,418.6,154c92.4,18.4,150.2-25.7,66.9-43.9
			c-83.3-18.3-188.6,26.9-231.6,98.2"/>
		<g>
			<path class="st3" d="M481.2,230.4h-83.1c-3.3,0-6,2.7-6,6v43.5c0,3.3,2.7,6,6,6h63.7l16.7,19.3c0.9,1.1,2.7,0.4,2.7-1v-18.3
				c3.3,0,6-2.7,6-6v-43.5C487.2,233.1,484.5,230.4,481.2,230.4z M439.7,273.4c-8.1,0-21.7-23.8-13.6-28.9
				c7.6-4.8,13.6,4.3,13.6,4.3s6-9.1,13.6-4.3C461.4,249.5,447.8,273.4,439.7,273.4z"/>
			<path class="st1" d="M473.2,236.4h-83.1c-3.3,0-6,2.7-6,6v43.5c0,3.3,2.7,6,6,6h63.7l16.7,19.3c0.9,1.1,2.7,0.4,2.7-1v-18.3
				c3.3,0,6-2.7,6-6v-43.5C479.2,239,476.5,236.4,473.2,236.4z M431.7,279.3c-8.1,0-21.7-23.8-13.6-28.9c7.6-4.8,13.6,4.3,13.6,4.3
				s6-9.1,13.6-4.3C453.4,255.5,439.8,279.3,431.7,279.3z"/>
		</g>
		<g>
			<path class="st3" d="M788.1,43.2v3.5l23,19.8c1.5,1.3,3.8,0.2,3.8-1.7v-43c0-2-2.3-3-3.8-1.7l-23,19.8V43.2z"/>
			<rect x="783.4" y="36.7" width="9.5" height="13.1"/>
			<path class="st1" d="M787.1,40.2v3.5l23,19.8c1.5,1.3,3.8,0.2,3.8-1.7v-43c0-2-2.3-3-3.8-1.7l-23,19.8V40.2z"/>
			<rect x="782.4" y="33.7" class="st1" width="9.5" height="13.1"/>
			<path class="st3" d="M780,60.9h-37.2c-3.5,0-6.4-2.9-6.4-6.4V32c0-3.5,2.9-6.4,6.4-6.4H780c3.5,0,6.4,2.9,6.4,6.4v22.4
				C786.5,58,783.6,60.9,780,60.9z"/>
			<path class="st0" d="M767.9,43.2c0,3.6-2.9,6.5-6.5,6.5c-3.6,0-6.5-2.9-6.5-6.5c0-3.6,2.9-6.5,6.5-6.5
				C765,36.7,767.9,39.6,767.9,43.2z"/>
			<path class="st1" d="M779,57.9h-37.2c-3.5,0-6.4-2.9-6.4-6.4V29c0-3.5,2.9-6.4,6.4-6.4H779c3.5,0,6.4,2.9,6.4,6.4v22.4
				C785.5,55,782.6,57.9,779,57.9z"/>
			<path class="st1" d="M767,40.2c0,3.6-2.9,6.5-6.5,6.5c-3.6,0-6.5-2.9-6.5-6.5c0-3.6,2.9-6.5,6.5-6.5C764,33.7,767,36.6,767,40.2z
				"/>
		</g>
		<g>
			<path class="st1" d="M340.1,240v243.6c0,2.7-1,5.3-2.6,7.2c-2,2.4-5.1,4-8.5,4H85.2c-6.2,0-11.2-5-11.2-11.2V240
				c0-6.2,5-11.2,11.2-11.2h243.7C335.1,228.8,340.1,233.8,340.1,240z"/>
			<path class="st2" d="M340.1,240v20.5H74V240c0-6.2,5-11.2,11.2-11.2h243.7C335.1,228.8,340.1,233.8,340.1,240z"/>
			<path class="st0" d="M266.4,245.2c0,2.9-2.3,5.2-5.2,5.2s-5.2-2.3-5.2-5.2c0-2.9,2.3-5.2,5.2-5.2S266.4,242.3,266.4,245.2z"/>
			<path class="st0" d="M299.2,245.2c0,2.9-2.3,5.2-5.2,5.2c-2.9,0-5.2-2.3-5.2-5.2c0-2.9,2.3-5.2,5.2-5.2
				C296.8,239.9,299.2,242.3,299.2,245.2z"/>
			<path class="st0" d="M331.9,245.2c0,2.9-2.3,5.2-5.2,5.2c-2.9,0-5.2-2.3-5.2-5.2c0-2.9,2.3-5.2,5.2-5.2
				C329.6,239.9,331.9,242.3,331.9,245.2z"/>
			<path class="st3" d="M331.9,245.2c0,2.9-2.3,5.2-5.2,5.2c-2.9,0-5.2-2.3-5.2-5.2c0-2.9,2.3-5.2,5.2-5.2
				C329.6,239.9,331.9,242.3,331.9,245.2z"/>
			<path class="st1" d="M340.1,240v20.5H74V240c0-6.2,5-11.2,11.2-11.2h243.7C335.1,228.8,340.1,233.8,340.1,240z"/>
		</g>
		<g>
			<path class="st3" d="M232.2,155.3c-0.8,0.5-1.6,1-2.4,1.3h-25.2v-12h5.9l-14.4-16.4l-14.4,16.4h5.9v12h-26.8
				c-4.5-5.1-7.3-11.8-7.3-19.2c0-3.6,0.6-7,1.8-10.1c4.1-11,14.7-18.9,27.2-18.9c8.5,0,16.1,3.6,21.4,9.4c2.1-1.9,5-3.1,8.2-3.1
				c6.3,0,11.5,4.6,11.5,10.3v0.1c6.4-0.9,12.6,1.4,15.9,6.5c0.9,1.4,1.5,2.9,1.9,4.5C242.8,142.9,239.3,150.7,232.2,155.3z"/>
			<path class="st1" d="M237.2,158.7c-0.8,0.5-1.6,0.9-2.4,1.3h-25.2v-12h5.9l-14.4-16.4l-14.4,16.4h5.9v12h-26.8
				c-4.5-5.1-7.3-11.8-7.3-19.2c0-3.6,0.6-7,1.8-10.1c4.1-11,14.7-18.9,27.2-18.9c8.5,0,16.1,3.6,21.4,9.4c2.1-1.9,5-3.1,8.2-3.1
				c6.3,0,11.5,4.6,11.5,10.3v0.1c6.4-0.9,12.6,1.4,15.9,6.5c0.9,1.4,1.5,2.9,1.9,4.5C247.8,146.4,244.3,154.2,237.2,158.7z"/>
		</g>
		<g>
			<polygon class="st3" points="369.6,45 375.1,57.2 413,21.4 			"/>
			<polygon class="st5" points="369.6,45 375.1,57.2 413,21.4 			"/>
			<polygon points="371.7,45.1 375.1,57.2 369.6,45 369,44.7 371.7,44.1 			"/>
			<polygon class="st3" points="413,21.3 395.1,46.1 371.7,45.1 369.6,45 369,44.7 357.3,38.7 			"/>
			<polygon class="st5" points="413,21.3 395.1,46.1 371.7,45.1 369.6,45 369,44.7 357.3,38.7 			"/>
			<polygon points="413,21.3 371.7,45.1 369.6,45 369,44.7 			"/>
		</g>
		<g>
			<path class="st0" d="M337.9,358.1h-5.8v-32.6h3c1.6,0,2.8,1.3,2.8,2.8V358.1z"/>
			<path class="st0" d="M302.3,330.1l-23.2,28.5h13.4l0,0c-0.1-2.9,0.7-5.7,2.3-8.1l7.5-11.8V330.1z"/>
			<path class="st1" d="M337.9,358.1h-5.8v-32.6h3c1.6,0,2.8,1.3,2.8,2.8V358.1z"/>
			<path class="st1" d="M302.3,330.1l-23.2,28.5h13.4l0,0c-0.1-2.9,0.7-5.7,2.3-8.1l7.5-11.8V330.1z"/>
			<rect x="309.5" y="317.4" class="st2" width="15" height="40.6"/>
			<rect x="309.5" y="317.4" class="st1" width="15" height="40.6"/>
			<rect x="299.6" y="312.8" class="st3" width="11.6" height="45.3"/>
			<rect x="299.6" y="312.8" class="st1" width="11.6" height="45.3"/>
			<rect x="322.5" y="312.8" class="st3" width="11.6" height="45.3"/>
			<rect x="322.5" y="312.8" class="st1" width="11.6" height="45.3"/>
			<rect x="250.5" y="356.8" class="st0" width="89.5" height="5"/>
			<rect x="250.5" y="356.8" class="st1" width="89.5" height="5"/>
		</g>
		<g>
			<polyline class="st1" points="129.3,478.3 129.3,568.5 93.5,568.5 			"/>
			<line class="st1" x1="129.3" y1="527.2" x2="93.5" y2="527.2"/>
			<line class="st1" x1="60.9" y1="532.6" x2="9.3" y2="532.6"/>
			<line class="st1" x1="65.2" y1="519.8" x2="46.6" y2="519.8"/>
			<line class="st1" x1="60.9" y1="574.1" x2="9.3" y2="574.1"/>
			<line class="st1" x1="65.2" y1="561.2" x2="46.6" y2="561.2"/>
			<rect x="74" y="515.1" class="st3" width="23.7" height="23.7"/>
			<rect x="74" y="556.6" class="st3" width="23.7" height="23.7"/>
			<rect x="70.5" y="510.6" class="st1" width="23.7" height="23.7"/>
			<rect x="70.5" y="552.1" class="st1" width="23.7" height="23.7"/>
		</g>
		<g>
			<path class="st0" d="M700.2,357.3c0,0-15.6-44.7-15.6-49.4c0-6.4,9-10.2,14.5-7.2c8,4.4,20.2,59.5,20.2,59.5L700.2,357.3z"/>
			<path class="st1" d="M700.2,357.3c0,0-15.6-44.7-15.6-49.4c0-6.4,9-10.2,14.5-7.2c8,4.4,20.2,59.5,20.2,59.5L700.2,357.3z"/>
			<path class="st0" d="M734.1,372.9c-19.3,15.9-43.1,17.7-53.2,17.7c-3.8-19.3-6.4-34.6-6.4-34.6l47.3-10.3
				C721.7,345.8,726.7,356.5,734.1,372.9z"/>
			<path class="st1" d="M734.1,372.9c-19.3,15.9-43.1,17.7-53.2,17.7c-3.8-19.3-6.4-34.6-6.4-34.6l47.3-10.3
				C721.7,345.8,726.7,356.5,734.1,372.9z"/>
			<path class="st0" d="M677.8,344.1c0,0,1.6-6.8,9-9c7.3-2.1,14.1,11.8,15.8,19.5c1.6,7.7,0.4,14.3-6.8,14.5
				c-7.2,0.2-9.1-8.4-10.6-13.4C683.7,350.7,677.8,344.1,677.8,344.1z"/>
			<path class="st1" d="M677.8,344.1c0,0,1.6-6.8,9-9c7.3-2.1,14.1,11.8,15.8,19.5c1.6,7.7,0.4,14.3-6.8,14.5
				c-7.2,0.2-9.1-8.4-10.6-13.4C683.7,350.7,677.8,344.1,677.8,344.1z"/>
			<path class="st2" d="M851.5,405.5l-70.4,65.2l0,0l-4.1,5.2c-5.5,5.7-17,13.9-37.1,13.4c-29.9-0.7-42.9-26.6-50.4-58l14.3-11.1
				c8.1-16.7,20.3-29.1,34.2-38.5c40.9-27.6,95.6-27.8,95.6-27.8L851.5,405.5z"/>
			<path class="st1" d="M851.5,405.5l-70.4,65.2l0,0l-4.1,5.2c-5.5,5.7-17,13.9-37.1,13.4c-29.9-0.7-42.9-26.6-50.4-58l14.3-11.1
				c8.1-16.7,20.3-29.1,34.2-38.5c40.9-27.6,95.6-27.8,95.6-27.8L851.5,405.5z"/>
			<path class="st2" d="M777,475.9c-5.5,5.7-17,13.9-37.1,13.4c-29.9-0.7-42.9-26.6-50.4-58c-0.1-0.6-0.3-1.2-0.4-1.8
				c-0.6-2.5-1.2-5.1-1.8-7.7c-0.3-1.4-0.6-2.9-1-4.4c-0.3-1.2-0.5-2.4-0.8-3.6c-0.3-1.3-0.5-2.6-0.8-3.9c-0.5-2.5-1-4.9-1.5-7.4
				c-0.2-0.8-0.3-1.6-0.5-2.3c-0.1-0.3-0.1-0.7-0.2-1c-0.1-0.5-0.2-1-0.3-1.5c-0.2-0.9-0.4-1.9-0.6-2.8c-0.1-0.7-0.3-1.3-0.4-2
				c-0.2-0.8-0.3-1.6-0.5-2.3c-0.1-0.7-0.3-1.4-0.4-2c-0.1-0.5-0.2-1-0.3-1.5c0-0.1,0-0.2-0.1-0.4c-0.1-0.4-0.2-0.9-0.2-1.3
				c0,0,0-0.1,0-0.1c-0.1-0.6-0.2-1.1-0.3-1.7c-0.1-0.5-0.2-1-0.3-1.5c-0.1-0.6-0.2-1.1-0.3-1.7c10.6,0.6,28.8-1.7,50-18.9h0
				c0.1,0.3,0.3,0.6,0.4,0.9c0.2,0.4,0.4,0.9,0.6,1.3c0.2,0.4,0.3,0.7,0.5,1.1c1.1,2.5,2.4,5.3,3.7,8.2c1.2,2.8,2.5,5.7,3.9,8.7
				C749.7,408.1,765.4,444.7,777,475.9z"/>
			<path class="st1" d="M777,475.9c-5.5,5.7-17,13.9-37.1,13.4c-29.9-0.7-42.9-26.6-50.4-58c-0.1-0.6-0.3-1.2-0.4-1.8
				c-0.6-2.5-1.2-5.1-1.8-7.7c-0.3-1.4-0.6-2.9-1-4.4c-0.3-1.2-0.5-2.4-0.8-3.6c-0.3-1.3-0.5-2.6-0.8-3.9c-0.5-2.5-1-4.9-1.5-7.4
				c-0.2-0.8-0.3-1.6-0.5-2.3c-0.1-0.3-0.1-0.7-0.2-1c-0.1-0.5-0.2-1-0.3-1.5c-0.2-0.9-0.4-1.9-0.6-2.8c-0.1-0.7-0.3-1.3-0.4-2
				c-0.2-0.8-0.3-1.6-0.5-2.3c-0.7-3.6-1.4-7-2-10.2c10.6,0.6,28.8-1.7,50-18.9c2.5,5.6,5.6,12.5,9.1,20.2c4,8.9,8.4,19.1,13,29.7"
				/>
			<path class="st3" d="M734.1,372.9c-19.3,15.9-43.1,17.7-53.2,17.7c-0.1-0.7-0.3-1.4-0.4-2c-0.1-0.5-0.2-1-0.3-1.5
				c0-0.1,0-0.2-0.1-0.4c-0.1-0.4-0.2-0.9-0.2-1.3c0,0,0-0.1,0-0.1c-0.1-0.6-0.2-1.1-0.3-1.7c-0.1-0.5-0.2-1-0.3-1.5
				c-0.1-0.6-0.2-1.1-0.3-1.7c10.6,0.6,28.8-1.7,50-18.9c0.1,0.3,0.3,0.6,0.4,0.9c0.2,0.4,0.4,0.9,0.6,1.3c0.2,0.4,0.3,0.7,0.5,1.1
				C731.5,367.3,732.7,370,734.1,372.9z"/>
			<path class="st1" d="M734.1,372.9c-19.3,15.9-43.1,17.7-53.2,17.7c-0.1-0.7-0.3-1.4-0.4-2c-0.1-0.5-0.2-1-0.3-1.5
				c0-0.1,0-0.2-0.1-0.4c-0.1-0.4-0.2-0.9-0.2-1.3c0,0,0-0.1,0-0.1c-0.1-0.6-0.2-1.1-0.3-1.7c-0.1-0.5-0.2-1-0.3-1.5
				c-0.1-0.6-0.2-1.1-0.3-1.7c10.6,0.6,28.8-1.7,50-18.9c0.1,0.3,0.3,0.6,0.4,0.9c0.2,0.4,0.4,0.9,0.6,1.3c0.2,0.4,0.3,0.7,0.5,1.1
				C731.5,367.3,732.7,370,734.1,372.9z"/>
			<path class="st0" d="M669.2,348.2c-1.5,5.1,3.6,24.5,14.7,22.2c11.1-2.3,1.3-24.4-4.8-27.6C675.3,340.8,670.1,345.1,669.2,348.2z
				"/>
			<path class="st1" d="M669.2,348.2c-1.5,5.1,3.6,24.5,14.7,22.2c11.1-2.3,1.3-24.4-4.8-27.6C675.3,340.8,670.1,345.1,669.2,348.2z
				"/>
			<path class="st0" d="M722.7,348c0,0-1.6-9.5-7.5-10.2c-5.9-0.7-26.1,11.3-24.8,16.3c1.3,5,5.3,9.2,12.7,7
				C710.5,358.9,722.7,348,722.7,348z"/>
			<path class="st1" d="M722.7,348c0,0-1.6-9.5-7.5-10.2c-5.9-0.7-26.1,11.3-24.8,16.3c1.3,5,5.3,9.2,12.7,7
				c3.6-1.1,8.4-4.2,12.3-7.2"/>
			<path class="st2" d="M833.5,353.9c0,0,54.3-8.6,87.6,31.9c33.3,40.5,36.3,95.3,37,110.7l-197.8-0.1c0,0-8.9-34.3,5-73.1
				C779.3,384.7,833.5,353.9,833.5,353.9z"/>
			<path class="st1" d="M833.5,353.9c0,0,54.3-8.6,87.6,31.9c33.3,40.5,36.3,95.3,37,110.7l-197.8-0.1c0,0-8.9-34.3,5-73.1"/>
			<path class="st1" d="M901.4,425.4c0,0,5.8,25.7,3.6,72.5"/>
			<path class="st3" d="M851.5,333.4v27c0,0-4.9,8.7-17.3,8.7c-12.4,0-17.3-8.7-17.3-8.7v-27H851.5z"/>
			<path class="st1" d="M851.5,333.4v27c0,0-4.9,8.7-17.3,8.7c-12.4,0-17.3-8.7-17.3-8.7v-27H851.5z"/>
			<path class="st0" d="M848.9,330.7v22.9c0,0-4.1,7.4-14.6,7.4c-10.5,0-14.6-7.4-14.6-7.4v-22.9H848.9z"/>
			<path class="st1" d="M848.9,330.7v22.9c0,0-4.1,7.4-14.6,7.4c-10.5,0-14.6-7.4-14.6-7.4v-22.9H848.9z"/>
			<path class="st2" d="M896.8,375.5c-12.2,13.8-38.7,14.3-48.6-5s0.7-64.5,0.7-64.5l-38.3,0.2c0,0,20.8,28.2,9,56.8
				c-9,21.8-28.6,29.2-41.3,21c0,0,0,0,0,0c-4-2.6-7.2-6.7-9.3-12.4c-8.6-23.9,14.1-34.6,22.4-43.5c8.4-8.8,4.1-27.5,3.6-43.2
				c-0.5-15.8,9.6-45,36.4-46.3c24.7-1.2,43.6,22,40.9,55.4c-2.6,33.4,8.1,38.9,14.8,44.2C893.9,343.5,909,361.7,896.8,375.5z"/>
			<path class="st0" d="M798.2,315.6c1.8,17.1-16.7,25.8-22.4,34.1c-5.7,8.3-6.7,22,2.6,34.4c-4-2.6-7.2-6.7-9.3-12.4
				c-8.6-23.9,14.1-34.6,22.4-43.5c8.4-8.8,4.1-27.5,3.6-43.2c-0.5-15.8,9.6-45,36.4-46.3C794.5,246.3,796.4,298.5,798.2,315.6z"/>
			<path class="st1" d="M831.5,238.7c-26.8,1.3-36.9,30.6-36.4,46.3c0.5,15.8,4.8,34.4-3.6,43.2c-8.4,8.8-31,19.6-22.4,43.5
				c8.6,23.9,38.7,20.1,50.5-8.6c11.8-28.7-9-56.8-9-56.8l38.3-0.2c0,0-10.6,45.1-0.7,64.5c9.9,19.3,36.4,18.9,48.6,5
				c12.2-13.8-2.9-32-9.6-37.2c-6.7-5.3-17.4-10.7-14.8-44.2C875.1,260.7,856.2,237.5,831.5,238.7z"/>
			<path class="st0" d="M863,303.2c0,20.8-13.2,36.6-29.5,36.6c-16.3,0-29.5-15.8-29.5-36.6c0-20.8,13.2-40.9,29.5-40.9
				C849.8,262.3,863,282.4,863,303.2z"/>
			<path class="st1" d="M863,303.2c0,20.8-13.2,36.6-29.5,36.6c-16.3,0-29.5-15.8-29.5-36.6c0-20.8,13.2-40.9,29.5-40.9
				C849.8,262.3,863,282.4,863,303.2z"/>
			<path class="st2" d="M822.5,302.1h-3.2v-5c0-0.9,0.7-1.6,1.6-1.6l0,0c0.9,0,1.6,0.7,1.6,1.6V302.1z"/>
			<path class="st2" d="M840.9,288.6c0.2,1.8,9.7,3,10,0.9C851.2,287.4,840.7,286,840.9,288.6z"/>
			<path class="st2" d="M845.4,302.1h-3.2v-5c0-0.9,0.7-1.6,1.6-1.6l0,0c0.9,0,1.6,0.7,1.6,1.6V302.1z"/>
			<path class="st1" d="M841.8,302.1c0,0,1.8-1.4,4.1,0"/>
			<path class="st6" d="M823.8,288.2c0,1.8-9.5,3.7-9.9,1.6C813.4,287.8,823.8,285.6,823.8,288.2z"/>
			<path class="st1" d="M823,302.1c0,0-1.8-1.4-4.1,0"/>
			<path class="st1" d="M831.1,311.5c0,0-0.7,3.4,2.7,3.1c3.4-0.3,3.4-4,1-4"/>
			<path class="st2" d="M843.2,264.7c0,0-11.6,32.8-40.9,36.4c0,0-7.4-48.8,29.3-51.4c36.6-2.6,34,51,34,51S855,299.6,843.2,264.7z"
				/>
			<path class="st1" d="M843.2,264.7c0,0-11.6,32.8-40.9,36.4c0,0-7.4-48.8,29.3-51.4c36.6-2.6,34,51,34,51S855,299.6,843.2,264.7z"
				/>
			<path class="st0" d="M860.2,300.7c0,0,2.6-4.5,10.1-2.2c7.5,2.3,5.4,21.5-10.1,17.3V300.7z"/>
			<path class="st1" d="M862.1,299c1.6-0.9,4.2-1.6,8.2-0.4c7.4,2.2,5.5,20.6-9.1,17.6"/>
			<path class="st1" d="M864.6,305c0,0,4.3-3,6.7,2.1"/>
			<line class="st1" x1="867.2" y1="309.7" x2="867.2" y2="304.2"/>
			<path class="st2" d="M842.6,327.2c-0.9,0.3-1.9,0.4-2.9,0.3c-3.2-0.1-6.3-1.7-6.1-4c0.3-3.8,7.2-2.6,9-5.5c1.8-2.9,5.6-3.5,6.2,0
				c0,0.1,0,0.1,0,0.2C849.5,321.6,848,325.6,842.6,327.2z"/>
			<path class="st1" d="M842.6,327.2c-0.9,0.3-1.9,0.4-2.9,0.3c-3.2-0.1-6.3-1.7-6.1-4c0.3-3.8,7.2-2.6,9-5.5c1.8-2.9,5.6-3.5,6.2,0
				c0,0.1,0,0.1,0,0.2C849.5,321.6,848,325.6,842.6,327.2z"/>
			<path class="st0" d="M842.6,327.2c-0.9,0.3-1.9,0.4-2.9,0.3c-0.5-2.7-0.7-6.2,2-7c2.2-0.7,3.4-3.9,7.1-2.3
				C849.5,321.6,848,325.6,842.6,327.2z"/>
			<path class="st0" d="M806.6,300.7c0,0-2.6-4.5-10.1-2.2c-7.5,2.3-5.4,21.5,10.1,17.3V300.7z"/>
			<path class="st1" d="M806.1,300.7c0,0-2.6-4.5-10.1-2.2c-7.5,2.3-5.4,21.5,10.1,17.3"/>
			<path class="st1" d="M802.2,305c0,0-4.3-3-6.7,2.1"/>
			<line class="st1" x1="799.6" y1="309.7" x2="799.6" y2="304.2"/>
		</g>
		<g>
			<path class="st3" d="M216.8,411.2v79.6H88.6v-76.1c0-4,1.4-7.7,3.8-10.5c3-3.6,7.5-5.8,12.5-5.8h96c7.6,0,14,5.2,15.8,12.3
				C216.8,410.9,216.8,411,216.8,411.2z"/>
			<path class="st1" d="M216.8,411.2v79.6H88.1v-79.6c0-4,1.4-7.7,3.8-10.5c3-3.6,7.5-5.8,12.5-5.8h96c8.8,0,16,7,16.3,15.8
				C216.8,410.9,216.8,411,216.8,411.2z"/>
			<path d="M149.1,490.9h-61v-34.7c12.7-34.4,39.9-38.8,39.9-38.8s4.3,10.3,11.8,19.6c7.5,9.3,3.7,19.6,7.5,39.2
				C148.6,482.5,149.1,487.2,149.1,490.9z"/>
			<path d="M152.5,398.4v17.1c-9.9-4.2-14.6-10.8-16.7-17.1H152.5z"/>
		</g>
		<g>
			<path class="st0" d="M134.9,444.3v46.6h-14.8c-4.9,0-9.4-2.7-11.6-7.1c-0.9-1.9-1.6-4.3-1.7-7.1c0-0.2,0-0.4,0-0.7
				c0-10.3,0-31.8,0-31.8H134.9z"/>
			<path class="st1" d="M134.9,490.9h-14.8c-4.9,0-9.4-2.7-11.6-7.1c-0.9-1.9-1.6-4.3-1.7-7.1c0-0.2,0-0.4,0-0.7
				c0-5.4,0-13.9,0-20.7"/>
			<path class="st0" d="M136.5,490.6h-16.6c-4.4,0-8.5-2.2-10.9-5.8c0,0-0.1-0.1-0.1-0.1c-1.3-2.1-2-4.5-2-6.9v-30.8l21.2,0.2
				l7.4,0.1L136.5,490.6z"/>
			<path class="st0" d="M314.2,473.3c0,0,5.8-2.1,9.4-0.5c3.6,1.7,9.2,9.4,9.3,11.1c0.1,1.7-4.1,3.5-7.5,0.6
				C322,481.7,314.2,473.3,314.2,473.3z"/>
			<path class="st1" d="M314.2,473.3c0,0,5.8-2.1,9.4-0.5c3.6,1.7,9.2,9.4,9.3,11.1c0.1,1.7-4.1,3.5-7.5,0.6
				C322,481.7,314.2,473.3,314.2,473.3z"/>
			<path class="st0" d="M303.7,473.6c0,0,2.7-4.8,7.4-4.1c4.7,0.7,14.7,10.4,15.9,12.1c2,3-2.4,7.5-7,6.9
				c-4.6-0.6-15.3-10.3-15.3-10.3L303.7,473.6z"/>
			<path class="st1" d="M303.7,473.6c0,0,2.7-4.8,7.4-4.1c4.7,0.7,14.7,10.4,15.9,12.1c2,3-2.4,7.5-7,6.9
				c-4.6-0.6-15.3-10.3-15.3-10.3L303.7,473.6z"/>
			<path class="st3" d="M248.8,490.9H135.4l-0.7-18.4c-12.2-16.2-31.5-17.7-31.5-17.7c-0.2-4.8,5.7-26.3,23.2-39.6
				c9.1-7,23.8-9.5,35.8-10.3c11.1-0.7,19.9,0,19.9,0c7.5,0.8,14.2,2.2,20.2,4.1C260.6,427.4,248.8,490.9,248.8,490.9z"/>
			<path class="st1" d="M248.8,490.9H135.4l-0.7-18.4c-12.2-16.2-31.5-17.7-31.5-17.7c-0.2-4.8,5.7-26.3,23.2-39.6
				c9.1-7,23.8-9.5,35.8-10.3c11.1-0.7,19.9,0,19.9,0c7.5,0.8,14.2,2.2,20.2,4.1C260.6,427.4,248.8,490.9,248.8,490.9z"/>
			<path class="st0" d="M216.8,476.1c0,0-2.1,12.2-2.1,14.8h64.7l19.8-9.8c0,0,10,6.7,13.6,7.6c0,0,7.4,1.2,5.7-6.4
				c0,0-17.8-14-21.4-15.4c-3.6-1.4-15.3,2.3-22.8,6.8l-26.3-8L216.8,476.1z"/>
			<path class="st1" d="M216.8,476.1c0,0-2.1,12.2-2.1,14.8h64.7l19.8-9.8c0,0,10,6.7,13.6,7.6c0,0,7.4,1.2,5.7-6.4
				c0,0-17.8-14-21.4-15.4c-3.6-1.4-15.3,2.3-22.8,6.8l-26.3-8L216.8,476.1z"/>
			<line class="st1" x1="214.7" y1="455.5" x2="216.8" y2="476.1"/>
			<path d="M202.3,409v8.3c0,3.7-1.4,7.2-4,9.9c-3.1,3.2-8.4,6.6-16.2,6.6c-8.5,0-13.4-3.1-16.3-6.2c-2.4-2.6-3.6-6-3.6-9.5v-13.2
				c11.1-0.7,19.9,0,19.9,0C189.6,405.7,196.3,407.1,202.3,409z"/>
			<path class="st0" d="M267.4,485c0,0,7.9,6.9,14.7,8.4c6.8,1.5,13.8-3.4,13.4-6.8c-0.5-3.4-19-7.2-19-7.2L267.4,485z"/>
			<path class="st1" d="M270.3,487.3c2.9,2.1,7.6,5.2,11.8,6.1c6.8,1.5,13.8-3.4,13.4-6.8c-0.3-2-7-4.2-12.3-5.6"/>
			<path class="st0" d="M195,394.9v20.6c0,2.2-1,4.3-2.9,5.6c-3.9,2.7-11.5,6-20.9-0.1c-1.9-1.3-3.1-3.4-3.1-5.7v-20.4H195z"/>
			<path class="st5" d="M195,394.9v20.6c0,2.2-1,4.3-2.9,5.6c-3.9,2.7-11.5,6-20.9-0.1c-1.9-1.3-3.1-3.4-3.1-5.7v-20.4H195z"/>
			<path class="st0" d="M204.2,374.3c0,16.7-10.6,29.4-23.6,29.4c-13,0-23.6-12.7-23.6-29.4s10.6-32.8,23.6-32.8
				C193.7,341.5,204.2,357.6,204.2,374.3z"/>
			<path class="st1" d="M204.2,374.3c0,16.7-10.6,29.4-23.6,29.4c-13,0-23.6-12.7-23.6-29.4s10.6-32.8,23.6-32.8
				C193.7,341.5,204.2,357.6,204.2,374.3z"/>
			<path d="M187.5,369.5c1.1,1,7.2-3.8,6.2-5.2C192.6,362.9,185.9,368.1,187.5,369.5z"/>
			<path d="M190.2,377.4h-2.6v-4c0-0.7,0.6-1.3,1.3-1.3l0,0c0.7,0,1.3,0.6,1.3,1.3V377.4z"/>
			<path d="M171.8,377.4h-2.6v-4c0-0.7,0.6-1.3,1.3-1.3l0,0c0.7,0,1.3,0.6,1.3,1.3V377.4z"/>
			<path class="st5" d="M187.2,377.4c0,0,1.4-1.1,3.3,0"/>
			<path d="M172,369.2c-1.1,1-7.5-3.3-6.5-4.7C166.4,363.1,173.5,367.8,172,369.2z"/>
			<path class="st5" d="M172.1,377.4c0,0-1.4-1.1-3.3,0"/>
			<path class="st5" d="M178.6,381c0,0-0.5,2.8,2.1,2.5c2.7-0.3,2.8-3.2,0.8-3.2"/>
			<path class="st1" d="M209.9,368.3c4.9,2.5,3.5,14.9-6.4,14"/>
			<path class="st1" d="M204.5,376.1c0,0,2.5-2.6,4.8,0.6"/>
			<path d="M171.5,385.5c0,0,3.5,5.2,9.9,4.9c0,0-4.7,5.5-9.3,2.4C169.2,391,171.5,385.5,171.5,385.5z"/>
			<path class="st1" d="M171.5,385.5c0,0,3.5,5.2,9.9,4.9c0,0-4.7,5.5-9.3,2.4C169.2,391,171.5,385.5,171.5,385.5z"/>
			<path class="st1" d="M204.2,372c0,6.1-5,11.1-11.1,11.1c-6.1,0-11.1-5-11.1-11.1c0-6.1,5-11.1,11.1-11.1
				C199.3,360.9,204.2,365.9,204.2,372z"/>
			<path class="st1" d="M179.2,372c0,6.1-5,11.1-11.1,11.1s-11.1-5-11.1-11.1c0-6.1,5-11.1,11.1-11.1S179.2,365.9,179.2,372z"/>
			<path class="st0" d="M172.2,412.1c-1.2,9.6-8.4,34.1-18.1,55.6c-9.8,21.5-17.4,22.9-17.4,22.9h-16.7c-4.4,0-8.5-2.2-10.9-5.8
				c0,0-0.1-0.1-0.1-0.1c-1.3-2.1-2-4.5-2-6.9v-2.4c6.4-8.7,14.2-19,21.2-28.3c10.9-14.3,20.2-26.1,20.2-26.1s0.7-11.3,0-13.3
				c-0.7-1.9-7.4-11.9-8.7-14.8c-1.3-2.9-2.4-18.4-0.9-21.6c1.6-3.2,4.3-1.8,4.3-1.8l4.9,8.6c0,0,5.1-6.3,7.4-9.3
				c2.3-3,6.6-2.6,7.5,2.5c1,5.1-3.1,8.5-3,10.1c0.1,1.7,0.5,5.3,5.8,11.3C171.2,398.9,173.4,402.5,172.2,412.1z"/>
			<path class="st1" d="M112.8,467.6c5-6.7,10.4-13.9,15.5-20.5c10.9-14.3,20.2-26.1,20.2-26.1s0.7-11.3,0-13.3
				c-0.7-1.9-7.4-11.9-8.7-14.8c-1.3-2.9-2.4-18.4-0.9-21.6c1.6-3.2,4.3-1.8,4.3-1.8l4.9,8.6c0,0,5.1-6.3,7.4-9.3
				c2.3-3,6.6-2.6,7.5,2.5c1,5.1-3.1,8.5-3,10.1c0.1,1.7,0.5,5.3,5.8,11.3c5.4,6.1,7.5,9.7,6.3,19.2s-8.4,34.1-18.1,55.6
				c-9.8,21.5-17.4,22.9-17.4,22.9h-16.7c-4.4,0-8.5-2.2-10.9-5.8c0,0-0.1-0.1-0.1-0.1c-1.3-2.1-2-4.5-2-6.9v-2.4"/>
			<path d="M205.8,374.5l-1.3-4.7c-10.2-6.1-12-12.7-12-12.7s-5,9.5-11.5,9.5c-6.4,0-7-4.8-7-4.8c-12.9,9.3-27,8-30.3-0.2h0
				c-0.6-1.5-0.9-3.1-0.7-5C144.2,344.3,156,343,156,343s-4.2-4.6-4.5-9.4c-0.2-3,1.1-6,5.9-7.8c12.4-4.8,24.6,3.6,24.9,3.8v0
				c-0.1-0.3-1.7-5.8,3-6.8c4.8-1.1,9.7,10.9,9.7,10.9s4.1-5.9,6.4-5.2c2.3,0.7-2.1,6.1-2.1,6.1c8.6-1.3,12.7,1.8,14.3,17.9
				C215.3,368.6,205.8,374.5,205.8,374.5z"/>
			<path class="st0" d="M182.3,329.6c-21.5-6.3-30.8,4.1-30.8,4.1c-0.2-3,1.1-6,5.9-7.8C169.8,321,182,329.4,182.3,329.6
				L182.3,329.6z"/>
			<path class="st0" d="M143.8,361.7L143.8,361.7c-0.6-1.5-0.9-3.1-0.7-5C144.2,344.3,156,343,156,343l1,0.5
				C142.9,347.5,143.8,361.7,143.8,361.7z"/>
			<path class="st1" d="M205.8,374.5c0,0,9.5-5.9,7.9-22c-1.6-16.1-5.7-19.2-14.3-17.9c0,0,4.5-5.4,2.1-6.1
				c-2.3-0.7-6.4,5.2-6.4,5.2s-4.8-12-9.7-10.9c-4.8,1.1-3,6.8-3,6.8s-12.4-8.6-24.9-3.8c-12.5,4.8-1.4,17.2-1.4,17.2
				s-11.8,1.3-12.9,13.6c-1.1,12.4,15.8,16.1,31,5.2c0,0,0.5,4.8,7,4.8c6.4,0,11.5-9.5,11.5-9.5s1.8,6.6,12,12.7L205.8,374.5z"/>
			<path class="st0" d="M146.9,390.9c0,0-3.8-5.5-4.3-9.3c-0.5-3.8-0.1-15.1,0.9-17.4c0.9-2,4.5-3.8,6.9-1.4c0.7,0.7,1,1.6,1,2.6
				c-0.1,3.8-0.5,15.8,0,17.6c0.6,2.1,3,3.9,3,3.9L146.9,390.9z"/>
			<path class="st1" d="M146.9,390.9c0,0-3.8-5.5-4.3-9.3c-0.5-3.8-0.1-15.1,0.9-17.4c0.9-2,4.5-3.8,6.9-1.4c0.7,0.7,1,1.6,1,2.6
				c-0.1,3.8-0.5,15.8,0,17.6c0.6,2.1,3,3.9,3,3.9"/>
			<path class="st1" d="M136.5,490.6h-16.6c-4.4,0-8.5-2.2-10.9-5.8c0,0-0.1-0.1-0.1-0.1c-1.3-2.1-2-4.5-2-6.9v-22.4"/>
		</g>
		<g>
			<path class="st3" d="M1028.5,612.3h-251c-3.9,0-7-3.1-7-7V472.7c0-3.9,3.1-7,7-7h251c3.9,0,7,3.1,7,7v132.6
				C1035.6,609.2,1032.4,612.3,1028.5,612.3z"/>
			<path class="st1" d="M1013.3,605.9H768.9c-5.7,0-10.3-4.6-10.3-10.3v-126c0-5.7,4.6-10.3,10.3-10.3h226.3h18.1
				c5.7,0,10.3,4.6,10.3,10.3v126C1023.6,601.2,1019,605.9,1013.3,605.9z"/>
			<line class="st7" x1="824.5" y1="505.9" x2="981.9" y2="505.9"/>
			<line class="st7" x1="824.5" y1="542.4" x2="981.9" y2="542.4"/>
			<line class="st7" x1="824.5" y1="578.9" x2="981.9" y2="578.9"/>
		</g>
	</g>
</g>
</svg>
